<svg width="24" height="24" viewBox="0 0 24 24" fill="none" xmlns="http://www.w3.org/2000/svg">
<g clip-path="url(#clip0_168_13116)">
<path d="M13.8226 7.9013C13.9701 7.56311 14.1082 7.22016 14.2129 6.87722L14.2367 6.79148C14.3462 6.42948 14.4271 6.06748 14.4747 5.71977C14.6984 4.14316 16.0169 3 17.6115 3C17.8114 3 18.0113 3.01905 18.2065 3.05239L18.2208 3.04763C19.9867 3.37153 21.2195 5.06721 20.9673 6.82958C20.4865 10.1352 18.7586 13.4218 16.0978 16.0939C13.4275 18.7518 10.1384 20.4856 6.8397 20.9667C6.68262 20.9905 6.52554 21 6.37322 21C4.76912 21 3.34113 19.8044 3.05553 18.2183C2.8937 17.3419 3.08885 16.4702 3.59817 15.7605C4.10272 15.0603 4.8548 14.6078 5.71635 14.484C6.06859 14.4364 6.44462 14.3506 6.82542 14.2363L6.87302 14.222C7.3157 14.0839 7.76789 13.9029 8.21533 13.6838M13.8226 7.9013C14.5318 8.42524 15.2553 9.14925 15.7265 10.1257C15.2553 9.14448 14.5365 8.42048 13.8226 7.9013ZM13.8226 7.9013C13.5941 8.42048 13.318 8.93967 12.9848 9.44456L12.961 9.4779C12.5326 10.1257 12.0376 10.7401 11.4854 11.3022L11.3902 11.3975L11.3759 11.4117M11.3759 11.4117C12.0757 12.0595 12.7992 12.9645 13.1514 14.1363C12.7944 12.9598 12.0757 12.0548 11.3759 11.4117ZM11.3759 11.4117L11.2998 11.488C10.7286 12.05 10.1003 12.5549 9.43864 12.9931L9.372 13.036C8.99596 13.2789 8.60564 13.4933 8.21533 13.6838M8.21533 13.6838C8.85316 14.3125 9.47672 15.1556 9.80039 16.2225C9.47672 15.1556 8.85316 14.3173 8.21533 13.6838Z" stroke="#884A35" stroke-linecap="round" stroke-linejoin="round"/>
</g>
<defs>
<clipPath id="clip0_168_13116">
<rect width="24" height="24" fill="white" transform="matrix(-1 0 0 1 24 0)"/>
</clipPath>
</defs>
</svg>
