<svg width="24" height="24" viewBox="0 0 24 24" fill="none" xmlns="http://www.w3.org/2000/svg">
<g clip-path="url(#clip0_168_13122)">
<path d="M6.89062 4.48167C8.4114 3.54274 10.1949 3 12.1032 3C13.2099 3 14.2715 3.18182 15.2668 3.51831" stroke="#884A35" stroke-linecap="round" stroke-linejoin="round"/>
<path d="M10.2428 12.7042C10.2428 12.7042 10.2428 12.6961 10.2428 12.6906C9.73052 9.73272 6.98623 7.73817 4.02697 8.10994C3.37673 9.40165 3.00781 10.867 3.00781 12.4247C3.00781 17.4748 7.3923 20.8317 12.2227 20.9999C13.1171 20.9538 15.949 20.4572 15.3306 17.0189C14.4016 12.5875 10.333 12.6825 10.2454 12.7015L10.2428 12.7042Z" stroke="#884A35" stroke-linecap="round" stroke-linejoin="round"/>
<path d="M13.5486 20.5035C18.5038 20.6853 21.0039 15.7382 21.0039 12.0395C21.0039 11.3177 20.9136 10.6148 20.7411 9.93369C20.2873 9.86856 19.8202 9.83057 19.3424 9.83057C16.3407 9.83057 13.7424 11.1955 12.4844 13.182" stroke="#884A35" stroke-linecap="round" stroke-linejoin="round"/>
<path d="M6.42188 13.0757C6.42188 13.0757 8.88218 19.5397 14.0815 20.1882" stroke="#884A35" stroke-linecap="round" stroke-linejoin="round"/>
<path d="M9.03906 9.87403C9.03906 9.87403 9.8804 6.70717 13.5244 6.72074C13.5244 6.72074 14.2861 3.60816 16.5686 3.08984C16.5686 3.08984 19.4854 4.64478 19.6765 9.31502" stroke="#884A35" stroke-linecap="round" stroke-linejoin="round"/>
<path d="M18.677 12.4082C18.677 12.4082 17.8357 14.5791 15.4922 16.343" stroke="#884A35" stroke-linecap="round" stroke-linejoin="round"/>
<path d="M4.48445 7.88428C4.48445 7.88428 4.30663 5.93857 5.14796 4.80968C5.14796 4.80968 8.68581 4.08513 11.2523 7.11631" stroke="#884A35" stroke-linecap="round" stroke-linejoin="round"/>
<path d="M16.384 6.39209C16.384 6.39209 16.4716 8.38121 15.7656 10.5087" stroke="#884A35" stroke-linecap="round" stroke-linejoin="round"/>
</g>
<defs>
<clipPath id="clip0_168_13122">
<rect width="24" height="24" fill="white" transform="matrix(-1 0 0 1 24 0)"/>
</clipPath>
</defs>
</svg>
