<svg width="24" height="24" viewBox="0 0 24 24" fill="none" xmlns="http://www.w3.org/2000/svg">
<g clip-path="url(#clip0_168_13040)">
<path d="M14.8935 10.9506C14.9279 10.3544 14.733 9.84458 14.4093 9.75217C14.1686 9.6836 13.9136 9.86843 13.7331 10.1993C13.6156 9.7939 13.3921 9.51367 13.1314 9.51367C12.8706 9.51367 12.6414 9.79688 12.5239 10.2113C12.3692 9.88632 12.14 9.69254 11.9022 9.72832C11.5583 9.78198 11.3205 10.3096 11.332 10.9476C8.23751 11.7764 5.94531 14.6025 5.94531 16.904C5.94531 19.6318 9.15439 21.0002 13.1142 21.0002C17.0739 21.0002 20.283 19.6288 20.283 16.904C20.283 14.6025 17.9908 11.7764 14.8935 10.9506Z" stroke="#777777" stroke-linecap="round" stroke-linejoin="round"/>
<path d="M12.6012 11.3384C12.6012 11.3384 11.9963 13.3 10.9844 14.0691" stroke="#777777" stroke-linecap="round" stroke-linejoin="round"/>
<path d="M13.6016 11.3384C13.6016 11.3384 15.0148 12.2476 14.9489 14.0006" stroke="#777777" stroke-linecap="round" stroke-linejoin="round"/>
<path d="M18.5 13C20.5554 12.6005 21 11.801 21 10.0756C21 8.18355 19.2414 5.86017 16.8651 5.1813C16.8915 4.69113 16.742 4.27204 16.4936 4.19607C16.309 4.1397 16.1133 4.29165 15.9748 4.56369C15.8847 4.23038 15.7132 4 15.5132 4C15.3131 4 15.1373 4.23283 15.0472 4.57349C14.9285 4.30635 14.7526 4.14705 14.5701 4.17646C14.3064 4.22057 14.1239 4.65437 14.1327 5.17884C11.7586 5.85772 10 8.1811 10 10.0731C10 10.4113 10.055 10.7226 10.1605 11.0093" stroke="#777777" stroke-linecap="round" stroke-linejoin="round"/>
<path d="M15 6C15 6 14.6259 7.43668 14 8" stroke="#777777" stroke-linecap="round" stroke-linejoin="round"/>
<path d="M16 6C16 6 17.0472 6.68309 16.9983 8" stroke="#777777" stroke-linecap="round" stroke-linejoin="round"/>
<path d="M6.92494 3H5.07506C3.92903 3 3 3.95584 3 5.13493V14.8651C3 16.0442 3.92903 17 5.07506 17H6.92494C8.07096 17 9 16.0442 9 14.8651V5.13493C9 3.95584 8.07096 3 6.92494 3Z" fill="white" stroke="#777777" stroke-linejoin="round"/>
<path d="M6.05896 15.2874C5.48035 14.7087 5.48035 13.7743 6.05896 13.1957C6.63758 12.6171 6.63758 11.6827 6.05896 11.1041C5.48035 10.5254 5.48035 9.59102 6.05896 9.01241C6.63758 8.43379 6.63758 7.49937 6.05896 6.92075C5.48035 6.34214 5.48035 5.40772 6.05896 4.8291" stroke="#777777" stroke-linecap="round" stroke-linejoin="round"/>
<path d="M6 17V21" stroke="#777777" stroke-linecap="round" stroke-linejoin="round"/>
</g>
<defs>
<clipPath id="clip0_168_13040">
<rect width="24" height="24" fill="white" transform="matrix(-1 0 0 1 24 0)"/>
</clipPath>
</defs>
</svg>
