<svg width="24" height="24" viewBox="0 0 24 24" fill="none" xmlns="http://www.w3.org/2000/svg">
<g clip-path="url(#clip0_168_13016)">
<path d="M16.8105 4.49995H9.08887C5.74281 4.49995 2.7572 7.48083 2.51562 11.4716L2.50098 11.8603V11.8613C2.43058 16.1423 5.37862 19.4974 8.8584 19.499C10.6478 19.4978 12.2792 18.6249 13.4453 17.1865L13.6729 16.8916C14.4516 15.8244 15.6018 15.1644 16.8721 15.1933H16.9824L17.2178 15.1855C19.5589 15.04 21.5323 12.7344 21.5 9.7812L21.4902 9.48335C21.3301 6.59647 19.1758 4.50003 16.8105 4.49995Z" stroke="#884A35" stroke-linejoin="bevel"/>
<path d="M13.5 6.5C12.9477 6.5 12.5 6.94772 12.5 7.5C12.5 8.05228 12.9477 8.5 13.5 8.5C14.0523 8.5 14.5 8.05228 14.5 7.5C14.5 6.94772 14.0523 6.5 13.5 6.5Z" stroke="#884A35"/>
<path d="M7.81934 7.76753C8.50889 7.40792 9.15997 7.4443 9.68945 7.67769L9.9082 7.78902C10.4823 8.12192 11.0427 8.80109 11.1699 9.71968L11.1895 9.9062C11.262 10.9358 11.4366 12.0655 11.9346 12.8886V12.8876C12.0028 13.003 12.0764 13.1076 12.1484 13.2021L12.3545 13.4609C12.4292 13.5551 12.4641 13.6053 12.4814 13.6494L12.4941 13.6933V13.6943C12.5084 13.769 12.498 13.8846 12.4521 14.0507L12.3945 14.2343C12.2039 14.7776 11.9457 15.262 11.6113 15.6416L11.4629 15.7968V15.7978C11.0067 16.245 10.5078 16.43 10.0508 16.4834L9.85742 16.498C9.01794 16.5287 8.1762 16.164 7.48828 15.6318L7.20312 15.3935L7.20215 15.3925L6.9834 15.1865C6.55442 14.7578 6.16954 14.2254 5.89648 13.6064L5.76953 13.29C5.52366 12.6093 5.39308 11.7579 5.60938 10.8212L5.65723 10.6328V10.6318C5.84764 9.94413 6.20052 9.32241 6.65234 8.77339L6.85156 8.54195H6.85254C7.16618 8.1952 7.49471 7.93873 7.82031 7.76851L7.81934 7.76753Z" stroke="#884A35" stroke-miterlimit="10"/>
<path d="M16.2959 7.63086C16.7451 7.06461 17.4554 6.91214 18.0322 7.21094H18.0332C18.151 7.27482 18.2583 7.34509 18.3545 7.43066L18.4473 7.52246C18.4949 7.57413 18.5389 7.62517 18.5801 7.67871L18.6963 7.85059L18.7012 7.8584C18.7295 7.90436 18.7299 7.92304 18.792 8.06543L18.7959 8.07422L18.7998 8.08203C19.0483 8.59947 19.1371 9.19011 19.0918 9.76172L19.0635 10.0059V10.0098C18.9865 10.5685 18.8042 11.1039 18.584 11.6494L18.3555 12.1943C18.2667 12.3949 18.1876 12.5684 18.0947 12.7139C18.0259 12.8216 17.9612 12.8954 17.8994 12.9443L17.8379 12.9854L17.8369 12.9863C17.7093 13.0579 17.5453 13.0796 17.3115 13.0752L17.0527 13.0625H17.0518C16.5427 13.0291 16.0427 13.0034 15.5469 12.9775H15.5459C15.5303 12.9758 15.5189 12.9731 15.5137 12.9727C15.501 12.9717 15.4894 12.9702 15.4814 12.9697H15.4746C15.2894 12.955 15.1143 12.9368 14.9482 12.9072L14.7822 12.873C14.6419 12.8392 14.5141 12.7922 14.4023 12.7314L14.2959 12.666C14.2359 12.6229 14.1928 12.5913 14.1592 12.5635L14.0762 12.4805C13.8063 12.1378 13.7829 11.5737 13.9883 11.126L13.9961 11.1064C14.1332 10.7711 14.3565 10.498 14.6416 10.1943C14.9111 9.90739 15.2684 9.56394 15.542 9.15332L15.541 9.15234C15.7353 8.86411 15.8644 8.52685 15.9678 8.27051C16.0534 8.05814 16.1263 7.89062 16.208 7.75684L16.2939 7.63379L16.2959 7.63086Z" stroke="#884A35"/>
</g>
<defs>
<clipPath id="clip0_168_13016">
<rect width="24" height="24" fill="white" transform="matrix(-1 0 0 1 24 0)"/>
</clipPath>
</defs>
</svg>
