<svg width="24" height="24" viewBox="0 0 24 24" fill="none" xmlns="http://www.w3.org/2000/svg">
<g clip-path="url(#clip0_168_13026)">
<path d="M10.4569 6.62905L14.5059 7.15737C18.1293 7.15737 21.0007 10.3804 21.0007 14.1494C21.0007 17.9185 18.0356 20.9998 14.4151 20.9998L6.57819 20.9467C6.48456 19.7189 7.94015 18.1723 11.2911 18.1723L13.7228 18.1841C15.3202 18.1841 16.6708 16.7792 16.6708 15.1205C16.6708 13.4617 14.8464 12.4081 13.2489 12.4081H10.752C6.45335 12.1336 4.30827 7.86278 4.84738 5.74951L7.83233 6.14206" stroke="#884A35" stroke-linecap="round" stroke-linejoin="round"/>
<path d="M14.3577 7.25781C14.7892 7.8304 15.0475 8.55352 15.0475 9.33861C15.0475 10.5044 14.1079 11.7588 13.2422 12.3639" stroke="#884A35" stroke-linecap="round" stroke-linejoin="round"/>
<path d="M20.5095 11.5884C20.4272 13.1556 19.3348 14.4838 17.8423 14.6992C17.4167 14.7612 17.1159 14.7376 16.6875 14.5723" stroke="#884A35" stroke-linecap="round" stroke-linejoin="round"/>
<path d="M15.1197 20.928C14.1578 20.571 13.6641 19.857 13.6641 18.8863C13.6641 18.668 13.6981 18.4555 13.7634 18.252" stroke="#884A35" stroke-linecap="round" stroke-linejoin="round"/>
<path d="M10.4385 6.26509C10.4385 6.9909 9.87401 7.57804 9.17626 7.57804C8.47851 7.57804 7.91406 6.9909 7.91406 6.26509C7.91406 5.53929 8.47851 4.95215 9.17626 4.95215C9.87401 4.95215 10.4385 5.53929 10.4385 6.26509Z" stroke="#884A35" stroke-linecap="round" stroke-linejoin="round"/>
<path d="M10.0408 18.1371L5.79891 15.6018C5.79891 15.6018 4.74339 14.9288 3.94892 15.9294C2.68628 17.5261 4.35467 17.9482 4.35467 17.9482L7.73685 18.934" stroke="#884A35" stroke-linecap="round" stroke-linejoin="round"/>
<path d="M6.60726 20.9528L4.24938 20.8996C4.24938 20.8996 3.08888 21.0944 3.00659 19.5803C2.89026 17.4287 4.35152 17.9481 4.35152 17.9481" stroke="#884A35" stroke-linecap="round" stroke-linejoin="round"/>
<path d="M4.86192 5.74371C3.99084 5.44266 3.42052 5.05896 3.45457 4.30338C3.48862 3.55075 4.17527 2.96341 4.98109 3.00178L20.2889 4.08202" stroke="#884A35" stroke-linecap="round" stroke-linejoin="round"/>
</g>
<defs>
<clipPath id="clip0_168_13026">
<rect width="24" height="24" fill="white" transform="matrix(-1 0 0 1 24 0)"/>
</clipPath>
</defs>
</svg>
