<svg width="24" height="24" viewBox="0 0 24 24" fill="none" xmlns="http://www.w3.org/2000/svg">
<g clip-path="url(#clip0_168_13144)">
<circle cx="12" cy="12" r="9.5" stroke="#884A35"/>
<path d="M18.5 5L5 18.5" stroke="#884A35"/>
<path d="M17.9841 9.03319C17.9796 9.02184 17.975 9.00823 17.9682 8.99688C17.9637 8.99007 17.9592 8.98326 17.9523 8.97645C17.9455 8.96738 17.9387 8.9583 17.9297 8.94922C17.9228 8.94241 17.916 8.93787 17.9092 8.93333C17.9024 8.92879 17.8979 8.92199 17.8911 8.91745C17.8888 8.91745 17.8843 8.91518 17.882 8.91291C17.8797 8.91291 17.8775 8.90837 17.8729 8.9061L12.1021 6.02383C12.0386 5.99206 11.9637 5.99206 11.9002 6.02383L6.12481 8.91064C6.12481 8.91064 6.12027 8.91518 6.11573 8.91745C6.11346 8.91745 6.10893 8.91972 6.10666 8.92199C6.09985 8.92652 6.09531 8.93106 6.0885 8.93787C6.08169 8.94241 6.07489 8.94922 6.06808 8.95376C6.059 8.96284 6.05219 8.97191 6.04539 8.98099C6.04085 8.9878 6.03404 8.99461 6.03177 9.00142C6.02496 9.01277 6.02042 9.02411 6.01589 9.03773C6.01362 9.04454 6.00908 9.05135 6.00908 9.05589C6.00454 9.07631 6 9.09447 6 9.11489V14.8885C6 14.9748 6.04766 15.0542 6.12481 15.0905L11.8979 17.9773C11.8979 17.9773 11.9047 17.9773 11.9092 17.9796C11.9387 17.9932 11.9682 18 12 18C12.0318 18 12.0613 17.9909 12.0908 17.9796C12.0953 17.9796 12.0976 17.9796 12.1021 17.9773L17.8752 15.0905C17.9523 15.0519 18 14.9725 18 14.8885V9.11262C18 9.0922 17.9977 9.07177 17.9909 9.05362C17.9909 9.04681 17.9864 9.04 17.9841 9.03319Z" stroke="#884A35" stroke-miterlimit="10"/>
<path d="M12 18V12" stroke="#884A35"/>
<path d="M6 9L12 12L18 9" stroke="#884A35"/>
</g>
<defs>
<clipPath id="clip0_168_13144">
<rect width="24" height="24" fill="white" transform="matrix(-1 0 0 1 24 0)"/>
</clipPath>
</defs>
</svg>
