<svg width="24" height="24" viewBox="0 0 24 24" fill="none" xmlns="http://www.w3.org/2000/svg">
<g clip-path="url(#clip0_168_13108)">
<path d="M3.10938 3.66309C4.6845 3.91512 6.24105 4.27802 7.76367 4.75L8.41406 4.95898C9.35442 5.27101 10.2488 5.61838 11.0176 6.12988L11.3398 6.36035C12.3669 7.15134 13.1001 8.31673 13.375 9.58105L13.4238 9.83496C13.519 10.4082 13.5194 10.9976 13.4307 11.5752L13.3867 11.8223C13.3112 12.202 13.2113 12.6399 13.0635 13.0479C12.9207 13.4417 12.7456 13.7661 12.5391 13.9834L12.5068 14.0166C12.4447 14.0776 12.3423 14.1698 12.2373 14.2598L11.9541 14.4922H11.9531C11.462 14.8674 10.7858 15.0913 10.1348 15.1895L9.85742 15.2236H9.85645C8.88046 15.3216 7.87376 15.0853 7.04102 14.5674H7.04199C5.87148 13.8368 5.08244 12.6033 4.47168 11.2373L4.2207 10.6445C3.38285 8.56732 2.83466 6.3718 2.5957 4.14355C2.56865 3.89122 2.75544 3.6764 3.00098 3.6582L3.10938 3.66309ZM20.9131 8.19922C21.2004 8.14251 21.4386 8.37105 21.4053 8.64551C21.2753 9.71647 21.0296 10.7729 20.6729 11.79L20.5137 12.2227C20.1531 13.1538 19.7012 13.9918 19.0098 14.5029L18.8682 14.6006C18.39 14.9083 17.8078 15.0543 17.2412 15.0068H17.2422C16.9052 14.9767 16.5684 14.9053 16.3018 14.7676L16.1924 14.7041L16.1895 14.7031L15.9199 14.5205C15.8118 14.4423 15.7411 14.3823 15.7158 14.3555L15.6885 14.3262C15.3221 13.9181 15.1688 13.3487 15.1221 12.8232C15.0988 12.5611 15.1028 12.3272 15.1133 12.1592C15.1185 12.0755 15.1258 12.0088 15.1309 11.9648C15.1334 11.9431 15.1353 11.927 15.1367 11.917L15.1377 11.9062L15.1387 11.9023C15.246 11.1988 15.5935 10.5331 16.1055 10.04L16.334 9.83984L16.335 9.83887C16.6998 9.54896 17.13 9.33369 17.6016 9.14746L18.0869 8.96973L18.0879 8.96875C19.0081 8.64528 19.9541 8.38851 20.9131 8.19922Z" stroke="#884A35" stroke-miterlimit="10"/>
<path d="M20 10C18 11.3333 14 15.4 14 21" stroke="#884A35" stroke-linecap="round"/>
<path d="M5 6C7.66667 7.5625 13.2 12.75 14 21" stroke="#884A35" stroke-linecap="round"/>
</g>
<defs>
<clipPath id="clip0_168_13108">
<rect width="24" height="24" fill="white" transform="matrix(-1 0 0 1 24 0)"/>
</clipPath>
</defs>
</svg>
