<svg width="24" height="24" viewBox="0 0 24 24" fill="none" xmlns="http://www.w3.org/2000/svg">
<g clip-path="url(#clip0_168_13076)">
<path d="M21 12C21 10.7556 19.9944 9.75 18.75 9.75C19.9944 9.75 21 8.74437 21 7.5C21 6.25563 19.9944 5.25 18.75 5.25C18.75 4.00563 17.7444 3 16.5 3C15.2556 3 14.25 4.00563 14.25 5.25C14.25 4.00563 13.2444 3 12 3C10.7556 3 9.75 4.00563 9.75 5.25C9.75 4.00563 8.74437 3 7.5 3C6.25563 3 5.25 4.00563 5.25 5.25C4.00563 5.25 3 6.25563 3 7.5C3 8.74437 4.00563 9.75 5.25 9.75C4.00563 9.75 3 10.7556 3 12C3 13.2444 4.00563 14.25 5.25 14.25C4.00563 14.25 3 15.2556 3 16.5C3 17.7444 4.00563 18.75 5.25 18.75C5.25 19.9944 6.25563 21 7.5 21C8.74437 21 9.75 19.9944 9.75 18.75C9.75 19.9944 10.7556 21 12 21C13.2444 21 14.25 19.9944 14.25 18.75C14.25 19.9944 15.2556 21 16.5 21C17.7444 21 18.75 19.9944 18.75 18.75C19.9944 18.75 21 17.7444 21 16.5C21 15.2556 19.9944 14.25 18.75 14.25C19.9944 14.25 21 13.2444 21 12Z" stroke="#884A35" stroke-linejoin="round"/>
<path d="M9.49947 9.8007C9.71923 9.8007 9.89738 9.62255 9.89738 9.40279C9.89738 9.18303 9.71923 9.00488 9.49947 9.00488C9.27971 9.00488 9.10156 9.18303 9.10156 9.40279C9.10156 9.62255 9.27971 9.8007 9.49947 9.8007Z" stroke="#884A35" stroke-linejoin="round"/>
<path d="M14.4057 9.8007C14.6255 9.8007 14.8036 9.62255 14.8036 9.40279C14.8036 9.18303 14.6255 9.00488 14.4057 9.00488C14.186 9.00488 14.0078 9.18303 14.0078 9.40279C14.0078 9.62255 14.186 9.8007 14.4057 9.8007Z" stroke="#884A35" stroke-linejoin="round"/>
<path d="M9.49947 14.6982C9.71923 14.6982 9.89738 14.52 9.89738 14.3003C9.89738 14.0805 9.71923 13.9023 9.49947 13.9023C9.27971 13.9023 9.10156 14.0805 9.10156 14.3003C9.10156 14.52 9.27971 14.6982 9.49947 14.6982Z" stroke="#884A35" stroke-linejoin="round"/>
<path d="M14.4057 14.6982C14.6255 14.6982 14.8036 14.52 14.8036 14.3003C14.8036 14.0805 14.6255 13.9023 14.4057 13.9023C14.186 13.9023 14.0078 14.0805 14.0078 14.3003C14.0078 14.52 14.186 14.6982 14.4057 14.6982Z" stroke="#884A35" stroke-linejoin="round"/>
</g>
<defs>
<clipPath id="clip0_168_13076">
<rect width="24" height="24" fill="white" transform="matrix(-1 0 0 1 24 0)"/>
</clipPath>
</defs>
</svg>
