<svg width="24" height="24" viewBox="0 0 24 24" fill="none" xmlns="http://www.w3.org/2000/svg">
<rect x="2.5" y="2.49805" width="18.9976" height="18.9976" rx="0.5" fill="white" stroke="#BBBBBB"/>
<path d="M7 13.3333L9.5 16L17 8" stroke="#BBBBBB" stroke-width="1.5" stroke-linecap="round" stroke-linejoin="round"/>
<path d="M2 2.99805C2 2.44576 2.44772 1.99805 3 1.99805H20.9976C21.5498 1.99805 21.9976 2.44576 21.9976 2.99805V20.9956C21.9976 21.5479 21.5498 21.9956 20.9976 21.9956H3C2.44772 21.9956 2 21.5479 2 20.9956V2.99805Z" fill="#FF7D20"/>
<path d="M16.4531 7.48704C16.7364 7.18485 17.2105 7.16956 17.5127 7.45286C17.8148 7.73616 17.8301 8.21024 17.5468 8.51243L10.0468 16.5124C9.90506 16.6637 9.70727 16.7497 9.49997 16.7497C9.29266 16.7497 9.09488 16.6637 8.95309 16.5124L6.45309 13.8464L6.40329 13.7878C6.1724 13.4856 6.20388 13.0515 6.48727 12.7859C6.77055 12.5204 7.20553 12.5168 7.49216 12.7663L7.54684 12.82L9.49997 14.9031L16.4531 7.48704Z" fill="white"/>
</svg>
