<svg width="20" height="20" viewBox="0 0 20 20" fill="none" xmlns="http://www.w3.org/2000/svg">
<path d="M10.3125 17L11.58 14.1166H15C15.5304 14.1166 16.0391 13.8824 16.4142 13.4654C16.7893 13.0485 17 12.483 17 11.8933V5.22333C17 4.63366 16.7893 4.06815 16.4142 3.6512C16.0391 3.23424 15.5304 3 15 3H5C4.46957 3 3.96086 3.23424 3.58579 3.6512C3.21071 4.06815 3 4.63366 3 5.22333V11.8933C3 12.483 3.21071 13.0485 3.58579 13.4654C3.96086 13.8824 4.46957 14.1166 5 14.1166H8.5" stroke="#777777" stroke-width="1.5" stroke-linecap="round"/>
<path d="M14 6C14.4142 6 14.75 6.33579 14.75 6.75C14.75 7.16421 14.4142 7.5 14 7.5H6C5.58579 7.5 5.25 7.16421 5.25 6.75C5.25 6.33579 5.58579 6 6 6H14Z" fill="#777777"/>
<path d="M10.25 9.5C10.6642 9.5 11 9.83579 11 10.25C11 10.6642 10.6642 11 10.25 11H6C5.58579 11 5.25 10.6642 5.25 10.25C5.25 9.83579 5.58579 9.5 6 9.5H8.125H10.25Z" fill="#777777"/>
</svg>
