<svg width="64" height="64" viewBox="0 0 64 64" fill="none" xmlns="http://www.w3.org/2000/svg">
<circle cx="32" cy="32" r="27.25" stroke="#BBBBBB" stroke-width="1.5"/>
<path d="M35 45C35 46.6569 33.6569 48 32 48C30.3431 48 29 46.6569 29 45C29 43.3431 30.3431 42 32 42C33.6569 42 35 43.3431 35 45Z" fill="#BBBBBB"/>
<path d="M29.1362 18.997C29.062 17.3643 30.3657 16 32.0001 16.0001C33.6344 16.0002 34.938 17.3644 34.8638 18.997L34.0908 36.0021C34.04 37.1199 33.119 38 32 38C30.881 38 29.96 37.1199 29.9092 36.0021L29.1362 18.997Z" fill="#BBBBBB"/>
</svg>
