<svg width="16" height="16" viewBox="0 0 16 16" fill="none" xmlns="http://www.w3.org/2000/svg">
<path d="M9.5529 1.78715H4.72055C4.64414 1.78623 4.56832 1.80059 4.49755 1.82941C4.42677 1.85822 4.36248 1.9009 4.30845 1.95493C4.25441 2.00896 4.21173 2.07326 4.18292 2.14403C4.15411 2.2148 4.13974 2.29063 4.14067 2.36703V4.89366H9.58051L9.5529 1.78715Z" fill="#21A366"/>
<path d="M14.0281 1.78715H9.55469V4.89366H14.6148V2.36013C14.6139 2.28398 14.5981 2.20875 14.5681 2.13874C14.5381 2.06873 14.4946 2.00531 14.4401 1.9521C14.3856 1.89889 14.3212 1.85694 14.2505 1.82864C14.1798 1.80034 14.1042 1.78624 14.0281 1.78715Z" fill="#33C481"/>
<path d="M14.6079 8H9.55469V11.1134H14.6079V8Z" fill="#107C41"/>
<path d="M9.54926 11.1134V8H4.10942V13.64C4.10849 13.7164 4.12286 13.7923 4.15167 13.863C4.18048 13.9338 4.22316 13.9981 4.2772 14.0521C4.33123 14.1062 4.39552 14.1489 4.4663 14.1777C4.53707 14.2065 4.61289 14.2208 4.6893 14.2199H14.0226C14.0994 14.2208 14.1755 14.2065 14.2467 14.1778C14.3178 14.149 14.3826 14.1065 14.4371 14.0525C14.4917 13.9986 14.5351 13.9344 14.5646 13.8636C14.5942 13.7927 14.6094 13.7168 14.6094 13.64V11.1134H9.54926Z" fill="#185C37"/>
<path d="M9.55612 4.88672H4.10938V8.00013H9.55612V4.88672Z" fill="#107C41"/>
<path d="M14.6079 4.88672H9.55469V8.00013H14.6079V4.88672Z" fill="#21A366"/>
<path d="M7.41322 4.5H1.58679C1.26271 4.5 1 4.76271 1 5.08678V10.9132C1 11.2373 1.26271 11.5 1.58679 11.5H7.41322C7.73729 11.5 8 11.2373 8 10.9132V5.08678C8 4.76271 7.73729 4.5 7.41322 4.5Z" fill="#107C41"/>
<path d="M2.80469 9.89841L4.02658 7.99998L2.90824 6.10847H3.81258L4.42007 7.30965C4.4663 7.39373 4.50555 7.48147 4.53743 7.57198V7.57198C4.57561 7.47964 4.61941 7.38972 4.66859 7.30275L5.35893 6.10156H6.18733L5.00686 7.99998L6.18733 9.91221H5.3037L4.61337 8.57987C4.57661 8.52616 4.54648 8.46822 4.52362 8.40728V8.40728C4.50067 8.46693 4.47297 8.52465 4.44078 8.57987L3.70903 9.91221L2.80469 9.89841Z" fill="white"/>
<g style="mix-blend-mode:soft-light" opacity="0.5">
<path style="mix-blend-mode:soft-light" opacity="0.5" d="M7.41322 4.5H1.58679C1.26271 4.5 1 4.76271 1 5.08678V10.9132C1 11.2373 1.26271 11.5 1.58679 11.5H7.41322C7.73729 11.5 8 11.2373 8 10.9132V5.08678C8 4.76271 7.73729 4.5 7.41322 4.5Z" fill="url(#paint0_linear_436_34830)"/>
</g>
<defs>
<linearGradient id="paint0_linear_436_34830" x1="2.21499" y1="4.04438" x2="6.78501" y2="11.9556" gradientUnits="userSpaceOnUse">
<stop stop-color="white" stop-opacity="0.5"/>
<stop offset="1" stop-opacity="0.7"/>
</linearGradient>
</defs>
</svg>
