<svg width="12" height="12" viewBox="0 0 12 12" fill="none" xmlns="http://www.w3.org/2000/svg">
<circle cx="6" cy="6" r="4.5" stroke="#BBBBBB"/>
<path d="M6.57366 8.24777C6.57366 8.58308 6.30183 8.85491 5.96652 8.85491C5.6312 8.85491 5.35938 8.58308 5.35938 8.24777C5.35938 7.91245 5.6312 7.64063 5.96652 7.64063C6.30183 7.64063 6.57366 7.91245 6.57366 8.24777Z" fill="#BBBBBB"/>
<path d="M5.38067 3.74739C5.36903 3.41578 5.6347 3.14062 5.96652 3.14062C6.29833 3.14062 6.56401 3.41578 6.55237 3.74739L6.44708 6.74805C6.438 7.0069 6.22553 7.21205 5.96652 7.21205C5.70751 7.21205 5.49503 7.0069 5.48595 6.74805L5.38067 3.74739Z" fill="#BBBBBB"/>
</svg>
