<svg width="63" height="48" viewBox="0 0 63 48" fill="none" xmlns="http://www.w3.org/2000/svg">
<g clip-path="url(#clip0_2_1506)">
<path d="M61.6543 26.4341C61.223 25.9371 60.4353 25.3276 59.1273 25.2667C59.1273 25.2667 55.3109 25.2667 49.6942 25.262L50.2615 21.7457H51.4054C52.676 21.7457 53.2199 20.5079 52.2072 19.9172L32.0329 8.17738C32.0329 8.17738 32.0329 8.17738 32.0282 8.17738V6.80836L40.4627 4.45009C41.0769 4.27662 41.0722 3.40457 40.4533 3.24048L32.0282 1.02755V0.722798C32.0282 0.324283 31.7047 -0.00390625 31.3015 -0.00390625C30.8983 -0.00390625 30.5748 0.319594 30.5748 0.722798V8.10705C30.5232 8.1305 30.4763 8.14925 30.4295 8.17738L10.2552 19.9172C9.24251 20.5079 9.78637 21.7457 11.0569 21.7457H12.2009L12.7635 25.2385C7.31088 25.2385 3.64454 25.2338 3.64454 25.2338C2.29897 25.2432 1.46443 25.8152 1.00028 26.2934C0.306391 27.0107 -0.0264865 27.9625 0.00164399 29.1205L0.240753 44.1844C0.240753 44.5736 0.240753 45.7644 1.10342 46.7724C1.57695 47.3257 2.449 47.9867 3.91647 47.9867C3.93054 47.9867 3.94929 47.9867 3.96336 47.9867L58.9022 47.9961C60.8667 47.9773 62.2872 46.5146 62.2872 44.5032L62.4513 29.0174C62.5639 27.7703 62.081 26.9264 61.659 26.4341H61.6543Z" fill="#884A35"/>
<path d="M14.7851 37.2018C15.2258 37.2018 15.3899 37.3096 15.3899 37.7363V38.9552C15.3899 39.3772 15.2258 39.4897 14.7851 39.4897L3.54231 39.6726C3.10159 39.6726 2.9375 39.5601 2.9375 39.1381V37.9191C2.9375 37.4971 3.10159 37.3846 3.54231 37.3846L14.7851 37.2018ZM6.135 30.4973V31.2334L14.5085 31.0881C15.043 31.0881 15.1133 31.1819 15.1133 31.8242V32.6306C15.1133 33.2729 15.0383 33.3479 14.5085 33.3667L6.14907 33.512V34.2668L14.5413 34.1027C15.0571 34.084 15.1461 34.2668 15.1461 34.8388V35.6452C15.1461 36.2125 15.0524 36.3813 14.5413 36.3813L3.87049 36.5642C3.35477 36.5642 3.19067 36.3063 3.17192 35.739L3.00783 29.1096C2.98907 28.4673 3.17192 28.2844 3.7064 28.2844L14.6914 28.1016C15.2258 28.1016 15.2962 28.1953 15.2962 28.8376V29.5925C15.2962 30.2348 15.2212 30.3098 14.6914 30.3286L6.13031 30.5114L6.135 30.4973ZM3.9502 45.0736C3.41572 45.0736 3.25162 44.8908 3.25162 44.2485V41.2197C3.25162 40.5774 3.43447 40.3946 3.9502 40.3946H5.24889C5.78337 40.3946 5.94746 40.5774 5.94746 41.2197V42.6732L14.546 42.5466C14.9867 42.5466 15.1133 42.6919 15.1133 43.1889V44.2672C15.1133 44.7642 15.0008 44.9095 14.5085 44.9095L3.94551 45.0736H3.9502Z" fill="white"/>
<path d="M29.4883 37.2018C29.929 37.2018 30.0931 37.3096 30.0931 37.7363V38.9552C30.0931 39.3772 29.929 39.4897 29.4883 39.4897L18.2454 39.6726C17.8047 39.6726 17.6406 39.5601 17.6406 39.1381V37.9191C17.6406 37.4971 17.8047 37.3846 18.2454 37.3846L29.4883 37.2018ZM20.8381 30.4973V31.2334L29.2116 31.0881C29.7461 31.0881 29.8164 31.1819 29.8164 31.8242V32.6306C29.8164 33.2729 29.7414 33.3479 29.2116 33.3667L20.8522 33.512V34.2668L29.2445 34.1027C29.7602 34.084 29.8493 34.2668 29.8493 34.8388V35.6452C29.8493 36.2125 29.7555 36.3813 29.2445 36.3813L18.5736 36.5642C18.0579 36.5642 17.8938 36.3063 17.875 35.739L17.711 29.1096C17.6922 28.4673 17.875 28.2844 18.4095 28.2844L29.3945 28.1016C29.929 28.1016 29.9993 28.1953 29.9993 28.8376V29.5925C29.9993 30.2348 29.9243 30.3098 29.3945 30.3286L20.8334 30.5114L20.8381 30.4973ZM18.6533 45.0736C18.1188 45.0736 17.9547 44.8908 17.9547 44.2485V41.2197C17.9547 40.5774 18.1376 40.3946 18.6533 40.3946H19.952C20.4865 40.3946 20.6506 40.5774 20.6506 41.2197V42.6732L29.2491 42.5466C29.6899 42.5466 29.8164 42.6919 29.8164 43.1889V44.2672C29.8164 44.7642 29.7039 44.9095 29.2116 44.9095L18.6486 45.0736H18.6533Z" fill="white"/>
<path d="M37.0147 34.3608C37.3617 34.1405 37.3992 34.1217 37.3992 33.6997V29.4755C37.3992 29.1098 37.5258 28.9785 37.9149 28.9785H39.1995C39.584 28.9785 39.7153 29.1051 39.7153 29.4755V33.6622C39.7153 34.0842 39.7528 34.1217 40.0997 34.3233L44.7272 37.0426C45.0741 37.2442 45.1116 37.3895 44.91 37.7037L44.2302 38.8429C44.0286 39.1899 43.9161 39.1711 43.5691 38.9695L38.501 35.9924L33.5781 39.1524C33.3015 39.354 33.1187 39.279 32.8983 38.932L32.2935 37.9568C32.0919 37.6615 32.1107 37.4786 32.4576 37.277L37.0147 34.3561V34.3608ZM44.7741 40.7699C45.121 40.7699 45.2335 40.8637 45.2335 41.2481V42.3874C45.2335 42.8093 45.1069 42.9031 45.2195 42.9031L33.2077 43.086C32.4717 43.086 32.3404 42.9922 32.3404 42.5702V41.4309C32.3404 41.0465 32.4482 40.9527 32.7998 40.9527L44.7787 40.7699H44.7741Z" fill="white"/>
<path d="M48.544 45.2662C48.2299 45.2662 48.1221 45.1724 48.1033 44.7504L47.9908 41.4639C47.972 41.0794 48.1033 41.0044 48.4502 40.9857L57.0676 40.62L57.1051 39.8651L48.0658 40.0105C47.7517 40.0105 47.6251 39.9167 47.6251 39.4947V38.5571C47.6251 38.1726 47.7329 38.0788 48.0845 38.0788L52.1822 38.0038V37.0849L47.6438 37.1599C47.3297 37.1599 47.2031 37.0661 47.2031 36.6442V35.5987C47.2031 35.2142 47.311 35.1204 47.6626 35.1204L59.0132 34.9376C59.3602 34.9376 59.4727 35.0314 59.4727 35.4158V36.4613C59.4727 36.8833 59.3461 36.9771 59.032 36.9771L54.4936 37.0521V37.971L59.032 37.896C59.3789 37.896 59.5102 37.9898 59.4915 38.3742L59.3274 41.6795C59.3086 42.1015 59.2008 42.1765 58.8867 42.1953L50.3444 42.561L50.3631 43.297L58.8773 43.1517C59.2242 43.1517 59.3367 43.2455 59.3367 43.6299V44.5676C59.3367 44.9896 59.2102 45.0833 58.896 45.0833L48.544 45.2662ZM47.3907 28.4394C47.4094 28.0738 47.5407 27.9519 47.9251 27.9659L59.0179 28.3035C59.4024 28.3222 59.543 28.4582 59.5102 28.8239L59.107 33.8452C59.0695 34.2109 58.9195 34.3328 58.535 34.314L57.2504 34.2531C56.866 34.2343 56.7628 34.1031 56.7956 33.7374L56.8097 33.442L48.033 33.1794C47.6485 33.1607 47.5266 33.0247 47.5407 32.659L47.5876 31.6135C47.6063 31.2478 47.7376 31.1259 48.1267 31.14L56.9785 31.4072L57.0629 30.3805L47.8267 30.0945C47.4422 30.0757 47.3203 29.9397 47.3344 29.574L47.386 28.4348L47.3907 28.4394Z" fill="white"/>
<path d="M34.606 16.512C34.606 18.4061 33.0682 19.9439 31.1741 19.9439C29.28 19.9439 27.7422 18.4061 27.7422 16.512C27.7422 14.6179 29.28 13.0801 31.1741 13.0801C33.0682 13.0801 34.606 14.6179 34.606 16.512Z" fill="white"/>
<path d="M33.1567 16.8357H31.2298C31.0516 16.8357 30.9062 16.6904 30.9062 16.5122V14.3508C30.9062 14.1727 31.0516 14.0273 31.2298 14.0273C31.4079 14.0273 31.5533 14.1727 31.5533 14.3508V16.1887H33.1567C33.3349 16.1887 33.4802 16.334 33.4802 16.5122C33.4802 16.6904 33.3349 16.8357 33.1567 16.8357Z" fill="#884A35"/>
<path d="M18.2502 23.973C17.8845 23.8277 17.4531 23.6261 17.4531 23.1056C17.4531 22.6602 17.7813 22.2383 18.5033 22.2383C18.8268 22.2383 19.0566 22.2758 19.3613 22.3977C19.4223 22.4258 19.441 22.4493 19.4363 22.5243L19.4129 22.8431C19.4129 22.904 19.3801 22.9134 19.305 22.8806C19.0706 22.7821 18.7846 22.7165 18.5877 22.7165C18.147 22.7165 17.9782 22.8759 17.9782 23.0963C17.9782 23.4151 18.494 23.5323 18.8362 23.6964C19.1972 23.8745 19.4129 24.0668 19.4129 24.4653C19.4129 24.9341 19.0566 25.3092 18.4611 25.3092C18.0861 25.3092 17.8188 25.2436 17.5797 25.1592C17.4953 25.1263 17.4859 25.1123 17.5 25.0279L17.5516 24.7513C17.5656 24.6669 17.5891 24.6528 17.6641 24.6809C17.8516 24.7419 18.1329 24.831 18.3861 24.831C18.6956 24.831 18.8831 24.7231 18.8831 24.4887C18.8831 24.2355 18.5221 24.0855 18.2408 23.9683" fill="white"/>
<path d="M21.902 25.1445C21.902 25.2196 21.902 25.2383 21.8082 25.2524C20.5376 25.4212 19.7969 24.7648 19.7969 23.7427C19.7969 22.7206 20.7111 22.2002 21.6863 22.294C21.7754 22.3034 21.7895 22.3221 21.7895 22.4018V22.6691C21.7895 22.7535 21.7519 22.7581 21.6816 22.7581C20.8471 22.7253 20.2985 23.0816 20.2985 23.813C20.2985 24.5444 20.908 24.9242 21.7848 24.7976C21.8692 24.7835 21.8832 24.807 21.8879 24.882L21.9113 25.1492L21.902 25.1445Z" fill="white"/>
<path d="M24.0332 23.9824H22.7814L22.8001 25.1592C22.8001 25.2435 22.7767 25.267 22.6876 25.267H22.4203C22.3313 25.267 22.3078 25.2389 22.3078 25.1592L22.2656 22.393C22.2656 22.3086 22.2938 22.2852 22.3828 22.2852H22.6454C22.7345 22.2852 22.7626 22.3133 22.7626 22.393L22.7767 23.5276H24.0332V22.393C24.0332 22.3086 24.0613 22.2852 24.1504 22.2852H24.4129C24.502 22.2852 24.5301 22.3133 24.5301 22.393V25.1592C24.5301 25.2435 24.502 25.267 24.4129 25.267H24.1504C24.0613 25.267 24.0332 25.2389 24.0332 25.1592V23.9824Z" fill="white"/>
<path d="M26.2221 25.3131C25.4907 25.3131 24.8906 24.727 24.8906 23.7753C24.8906 22.8236 25.4907 22.2422 26.2221 22.2422C26.9535 22.2422 27.5536 22.8376 27.5536 23.78C27.5536 24.7224 26.9535 25.3131 26.2221 25.3131ZM26.2221 22.7063C25.7017 22.7063 25.4064 23.1799 25.4064 23.78C25.4064 24.3801 25.7064 24.8489 26.2221 24.8489C26.7379 24.8489 27.0426 24.3801 27.0426 23.78C27.0426 23.1799 26.7425 22.7063 26.2221 22.7063Z" fill="white"/>
<path d="M29.2534 25.3131C28.522 25.3131 27.9219 24.727 27.9219 23.7753C27.9219 22.8236 28.522 22.2422 29.2534 22.2422C29.9848 22.2422 30.5849 22.8376 30.5849 23.78C30.5849 24.7224 29.9848 25.3131 29.2534 25.3131ZM29.2534 22.7063C28.733 22.7063 28.4376 23.1799 28.4376 23.78C28.4376 24.3801 28.7377 24.8489 29.2534 24.8489C29.7691 24.8489 30.0739 24.3801 30.0739 23.78C30.0739 23.1799 29.7738 22.7063 29.2534 22.7063Z" fill="white"/>
<path d="M30.9375 22.393C30.9375 22.3086 30.9656 22.2852 31.0547 22.2852H31.3173C31.4063 22.2852 31.4345 22.3133 31.4345 22.393L31.4814 24.8122H32.7238C32.8082 24.8122 32.8363 24.8357 32.8363 24.92V25.1685C32.8363 25.2529 32.8035 25.2717 32.7238 25.2717H31.0969C31.0125 25.2717 30.9891 25.2529 30.9891 25.1685L30.9375 22.393Z" fill="white"/>
<path d="M34.5126 23.5276H35.6144C35.6988 23.5276 35.7269 23.5463 35.7269 23.6307V23.8792C35.7269 23.9636 35.6941 23.9871 35.6144 23.9871H34.5173L34.5314 25.1638C34.5314 25.2482 34.5079 25.2717 34.4188 25.2717H34.1657C34.0766 25.2717 34.0484 25.2435 34.0484 25.1638L34.0156 22.3883C34.0156 22.3039 34.0438 22.2852 34.1235 22.2852H35.7597C35.8441 22.2852 35.8675 22.3039 35.8675 22.3883V22.6368C35.8675 22.7212 35.8394 22.7446 35.7597 22.7446H34.5032L34.5126 23.5323V23.5276Z" fill="white"/>
<path d="M37.6909 25.3131C36.9595 25.3131 36.3594 24.727 36.3594 23.7753C36.3594 22.8236 36.9595 22.2422 37.6909 22.2422C38.4223 22.2422 39.0224 22.8376 39.0224 23.78C39.0224 24.7224 38.4223 25.3131 37.6909 25.3131ZM37.6909 22.7063C37.1705 22.7063 36.8751 23.1799 36.8751 23.78C36.8751 24.3801 37.1752 24.8489 37.6909 24.8489C38.2066 24.8489 38.5114 24.3801 38.5114 23.78C38.5114 23.1799 38.2113 22.7063 37.6909 22.7063Z" fill="white"/>
<path d="M40.9096 25.3131C40.1782 25.3131 39.5781 24.727 39.5781 23.7753C39.5781 22.8236 40.1782 22.2422 40.9096 22.2422C41.641 22.2422 42.2411 22.8376 42.2411 23.78C42.2411 24.7224 41.641 25.3131 40.9096 25.3131ZM40.9096 22.7063C40.3892 22.7063 40.0939 23.1799 40.0939 23.78C40.0939 24.3801 40.3939 24.8489 40.9096 24.8489C41.4254 24.8489 41.7301 24.3801 41.7301 23.78C41.7301 23.1799 41.4301 22.7063 40.9096 22.7063Z" fill="white"/>
<path d="M42.8094 22.5105C42.8094 22.3511 42.8375 22.3042 43.0204 22.2948C44.0096 22.2338 45.0129 22.5198 45.0129 23.7107C45.0129 24.7 44.3753 25.2673 43.0157 25.2673C42.8844 25.2673 42.8422 25.2297 42.8375 25.0703L42.8047 22.5105H42.8094ZM43.3251 24.789C43.8924 24.775 44.5441 24.4796 44.5441 23.7107C44.5441 23.0074 44.0706 22.7355 43.3017 22.7543L43.3251 24.789Z" fill="white"/>
</g>
<defs>
<clipPath id="clip0_2_1506">
<rect width="62.4638" height="48" fill="white"/>
</clipPath>
</defs>
</svg>
