<svg width="40" height="40" viewBox="0 0 40 40" fill="none" xmlns="http://www.w3.org/2000/svg">
<circle cx="20" cy="20" r="20" fill="#F1F1F1"/>
<path d="M15.0391 14.8164L18.7626 18.4415" stroke="#777777" stroke-width="1.5" stroke-linecap="round" stroke-linejoin="round"/>
<path d="M19.8916 12.0045L20 9C26.0648 9 31 13.9352 31 20C31 26.0648 26.0648 31 20 31C13.9352 31 9 26.0648 9 20C9 16.966 10.2346 14.2176 12.2245 12.2245" stroke="#777777" stroke-width="1.5" stroke-linecap="round" stroke-linejoin="round"/>
<path d="M19.9997 21.9994C21.1041 21.9994 21.9994 21.1041 21.9994 19.9997C21.9994 18.8953 21.1041 18 19.9997 18C18.8953 18 18 18.8953 18 19.9997C18 21.1041 18.8953 21.9994 19.9997 21.9994Z" stroke="#777777" stroke-width="1.5" stroke-linecap="round" stroke-linejoin="round"/>
</svg>
