<svg width="16" height="16" viewBox="0 0 16 16" fill="none" xmlns="http://www.w3.org/2000/svg">
<path d="M3.08426 7.10606C3.31984 7.32576 3.42457 7.64531 3.42052 7.96742C3.42035 7.98153 3.42026 7.99565 3.42026 8.0098C3.42026 8.01968 3.4203 8.02956 3.42039 8.03943C3.42318 8.36052 3.3183 8.67883 3.08346 8.89783L2.59034 9.35767C2.24637 9.67843 2.17241 10.1955 2.41268 10.5999L2.90916 11.4354C3.14048 11.8246 3.60449 12.0099 4.0403 11.887L4.76346 11.683C5.06114 11.599 5.37749 11.6635 5.64356 11.8212C5.68442 11.8454 5.72569 11.869 5.76738 11.892C6.04493 12.0451 6.2674 12.2911 6.34522 12.5983L6.50913 13.2455C6.62151 13.6892 7.0208 14 7.47853 14H8.5236C8.98132 14 9.38061 13.6892 9.49299 13.2455L9.65691 12.5983C9.73473 12.2911 9.95718 12.0451 10.2347 11.8919C10.2768 11.8686 10.3185 11.8447 10.3598 11.8202C10.6257 11.6624 10.942 11.5979 11.2396 11.6818L11.9607 11.8851C12.3966 12.0079 12.8605 11.8225 13.0918 11.4332L13.5885 10.597C13.8287 10.1926 13.7545 9.67538 13.4104 9.3547L12.9179 8.89579C12.6829 8.67679 12.5779 8.35836 12.5807 8.03713C12.5808 8.02735 12.5808 8.01755 12.5808 8.00773C12.5808 7.99241 12.5807 7.97704 12.5805 7.96164C12.5759 7.63991 12.6811 7.32086 12.9165 7.10149L13.4103 6.64129C13.7545 6.32056 13.8286 5.80329 13.5882 5.39885L13.0918 4.56339C12.8605 4.17422 12.3967 3.98895 11.9609 4.1117L11.2172 4.32122C10.9215 4.40454 10.6072 4.34141 10.3424 4.18556C10.3077 4.16517 10.2728 4.14521 10.2376 4.1257C9.96087 3.97247 9.73893 3.72703 9.66099 3.4205L9.4914 2.75356C9.37868 2.3103 8.97961 2 8.52224 2H7.47637C7.01866 2 6.61938 2.31075 6.50699 2.75444L6.33765 3.42293C6.25991 3.72984 6.03781 3.97564 5.76098 4.12926C5.72619 4.14857 5.6917 4.16831 5.65749 4.18847C5.39279 4.34448 5.07855 4.40764 4.7828 4.32432L4.03906 4.11479C3.60333 3.99204 3.13949 4.17732 2.90823 4.56648L2.4116 5.40222C2.17134 5.80654 2.24528 6.32363 2.58923 6.64439L3.08426 7.10606Z" stroke="#BBBBBB" stroke-width="1.5" stroke-miterlimit="10"/>
<circle cx="8" cy="8" r="2" stroke="#BBBBBB" stroke-width="1.5"/>
</svg>
