<svg width="24" height="24" viewBox="0 0 24 24" fill="none" xmlns="http://www.w3.org/2000/svg">
<g clip-path="url(#clip0_168_13056)">
<path d="M20.7964 8.31659C20.3338 6.63566 19.1339 5.19834 17.587 4.47187C16.467 3.94574 15.1291 3.95714 13.8503 4.0479C12.2786 4.15927 11.4863 4.8723 10.6475 5.62718C10.1869 6.04181 9.71045 6.4704 9.07046 6.82653C8.46701 7.16218 7.76894 7.24705 7.02998 7.33678C6.36063 7.41807 5.66846 7.50205 5.0336 7.78726C4.24297 8.14237 3.59439 8.8481 3.25401 9.72344C2.91363 10.5988 2.91542 11.5567 3.25888 12.3515C3.47516 12.8518 3.80105 13.2841 4.11643 13.7022C4.42194 14.1072 4.7104 14.4898 4.90283 14.9246C4.9977 15.139 5.06796 15.3634 5.14219 15.601C5.20911 15.8149 5.27834 16.036 5.3677 16.2515C5.71025 17.0774 6.36717 17.7751 7.21754 18.2162C8.06791 18.6573 9.01738 18.7927 9.89096 18.5978C10.0598 18.5601 10.2252 18.5115 10.3849 18.4645C10.6671 18.3815 10.9336 18.3033 11.204 18.2855C11.9617 18.236 12.6435 18.6528 13.3653 19.0941C14.0494 19.5123 14.7568 19.9448 15.5768 19.9954C15.6268 19.9985 15.677 20 15.7272 20C16.7501 20 17.7825 19.3643 18.3917 18.3466C18.8745 17.54 19.1149 16.5379 19.1484 15.1931C19.1497 15.1421 19.1507 15.0909 19.1517 15.0395C19.1589 14.6737 19.1657 14.3282 19.2643 14.0079C19.3824 13.6242 19.6277 13.2899 19.8875 12.9359C19.9772 12.8135 20.07 12.6871 20.1572 12.5583C20.9857 11.335 21.2128 9.82854 20.7966 8.31646L20.7964 8.31659Z" stroke="#884A35" stroke-miterlimit="10"/>
<path d="M15.6626 12.4858C14.9497 12.9578 13.997 13.2176 12.98 13.2176C11.9629 13.2176 11.0102 12.9578 10.2973 12.4858C9.61693 12.0353 9.24219 11.447 9.24219 10.8293C9.24219 10.2116 9.61693 9.62329 10.2973 9.17282C11.0102 8.70084 11.9629 8.44097 12.98 8.44097C13.997 8.44097 14.9497 8.70084 15.6626 9.17282C16.343 9.62329 16.7177 10.2115 16.7177 10.8293C16.7177 11.4471 16.343 12.0353 15.6626 12.4858Z" stroke="#884A35" stroke-miterlimit="10"/>
</g>
<defs>
<clipPath id="clip0_168_13056">
<rect width="24" height="24" fill="white" transform="matrix(-1 0 0 1 24 0)"/>
</clipPath>
</defs>
</svg>
