<svg width="24" height="24" viewBox="0 0 24 24" fill="none" xmlns="http://www.w3.org/2000/svg">
<g clip-path="url(#clip0_168_13136)">
<path d="M12.0449 2.5C13.8074 2.5 15.2411 3.929 15.2412 5.69629C15.2412 6.05003 15.182 6.38887 15.0762 6.70508C16.2186 7.19135 17.0174 8.32167 17.0176 9.64062C17.0176 10.0512 16.9386 10.4404 16.7988 10.7988C17.8184 11.4609 18.4971 12.6055 18.4971 13.917C18.497 15.9692 16.8278 17.6367 14.7725 17.6367C13.6911 17.6367 12.7219 17.1757 12.0439 16.4414C11.3643 17.175 10.396 17.6366 9.31445 17.6367C7.25872 17.6367 5.59386 15.9727 5.59375 13.917C5.59375 12.6047 6.27238 11.4588 7.29297 10.7969C7.15287 10.4389 7.07324 10.049 7.07324 9.64062C7.07339 8.32114 7.8743 7.19524 9.01172 6.70703C8.90535 6.389 8.84863 6.04908 8.84863 5.69629C8.84872 3.9291 10.2825 2.50015 12.0449 2.5Z" stroke="#884A35"/>
<path d="M12 9V21" stroke="#884A35" stroke-linecap="round"/>
</g>
<defs>
<clipPath id="clip0_168_13136">
<rect width="24" height="24" fill="white" transform="matrix(-1 0 0 1 24 0)"/>
</clipPath>
</defs>
</svg>
