<svg width="24" height="24" viewBox="0 0 24 24" fill="none" xmlns="http://www.w3.org/2000/svg">
<g clip-path="url(#clip0_168_13092)">
<path d="M8.03917 15C7.85462 13.9573 8.33169 12.8721 9.26952 12.251C9.86461 11.8571 10.6455 11.601 11.5758 11.5368L11.8043 11.5266L11.8005 11.503C11.7666 11.0185 11.9562 10.5961 12.2035 10.2346C12.4791 9.83049 12.8714 9.44395 13.1903 9.09729C13.4094 8.85943 13.7817 9.09324 13.6963 9.41625C13.6241 9.68993 13.6743 9.76021 13.68 9.76764C13.6944 9.78859 13.7296 9.81562 13.8156 9.8467L13.911 9.87576L14.4182 9.96023C15.6184 10.1785 16.5744 10.4853 17.1965 10.9144C17.5568 11.1631 17.8311 11.4705 17.9592 11.8523C18.0239 12.047 18.0471 12.2483 18.0314 12.4531L18.0057 12.6092L18.0396 12.6058C18.5072 12.5781 18.8889 12.6295 19.1883 12.747C19.7049 12.9504 19.9924 13.3667 20 13.8891C20.0044 14.2526 19.6478 14.9986 19.6478 14.9986" fill="white"/>
<path d="M8.03917 15C7.85462 13.9573 8.33169 12.8721 9.26952 12.251C9.86461 11.8571 10.6455 11.601 11.5758 11.5368L11.8043 11.5266L11.8005 11.503C11.7666 11.0185 11.9562 10.5961 12.2035 10.2346C12.4791 9.83049 12.8714 9.44395 13.1903 9.09729C13.4094 8.85943 13.7817 9.09324 13.6963 9.41625C13.6241 9.68993 13.6743 9.76021 13.68 9.76764C13.6944 9.78859 13.7296 9.81562 13.8156 9.8467L13.911 9.87576L14.4182 9.96023C15.6184 10.1785 16.5744 10.4853 17.1965 10.9144C17.5568 11.1631 17.8311 11.4705 17.9592 11.8523C18.0239 12.047 18.0471 12.2483 18.0314 12.4531L18.0057 12.6092L18.0396 12.6058C18.5072 12.5781 18.8889 12.6295 19.1883 12.747C19.7049 12.9504 19.9924 13.3667 20 13.8891C20.0044 14.2526 19.6478 14.9986 19.6478 14.9986" stroke="#777777" stroke-miterlimit="10"/>
<path d="M16.5971 21C16.7352 21 16.8718 20.9714 16.9983 20.916L17.2122 20.8223C19.3315 19.8017 20.5472 17.9133 20.9715 15.2187V15.2187C20.9866 15.1028 20.8964 15 20.7795 15H7.22051C7.10364 15 7.01342 15.1028 7.02855 15.2187V15.2187C7.45215 17.9133 8.66784 19.8017 10.7872 20.8223L11.001 20.916C11.1275 20.9714 11.2641 21 11.4022 21H16.5971Z" fill="white" stroke="#777777" stroke-miterlimit="10"/>
<path d="M10.9898 15.9348C10.9198 14.693 10.5653 13.0865 9.93781 11.1618C9.93781 11.1618 9.93548 11.1541 9.93314 11.1489L9.8655 10.9419C9.36168 9.42598 8.85785 8.22305 8.77621 8.03421V7.06669C8.77621 6.98649 8.76222 6.90888 8.73423 6.83903C8.76455 6.75884 8.78321 6.6683 8.78321 6.5674V5.15493C8.78321 4.97126 8.72723 4.80569 8.62693 4.69963C8.55229 4.61943 8.45666 4.57545 8.35869 4.57545C8.3517 4.57545 8.3447 4.57545 8.3377 4.57545C7.92018 4.57545 7.81755 3.75798 7.79422 3.50446C7.76857 3.20696 7.59596 3 7.37204 3H6.67695C6.45536 3 6.28042 3.20696 6.25476 3.50446C6.23377 3.75798 6.12414 4.59356 5.70195 4.57545C5.59932 4.57028 5.49902 4.61684 5.42205 4.69963C5.32175 4.80569 5.26577 4.97384 5.26577 5.15493V6.5674C5.26577 6.64501 5.27743 6.72003 5.29609 6.78729C5.25411 6.87008 5.22845 6.96579 5.22845 7.06927V8.03679C5.14914 8.22047 4.64299 9.42598 4.13916 10.9445L4.06686 11.1618C3.43941 13.0865 3.08486 14.6904 3.01489 15.9348C2.96824 16.7807 3.03122 17.5956 3.20382 18.3587L3.2598 18.6097H3.26447C3.57236 19.7893 4.06919 20.5188 4.27678 20.7853C4.38175 20.9224 4.53569 21 4.69897 21H9.30103C9.46664 21 9.61825 20.9224 9.72089 20.7879C9.93081 20.5188 10.4276 19.7867 10.7355 18.6097H10.7402L10.7962 18.3587C10.9688 17.5956 11.0318 16.7807 10.9851 15.9348H10.9898ZM5.32408 6.81575H8.69458ZM10.8965 17.9448H3.15484ZM3.89192 11.6042H10.1034Z" fill="white"/>
<path d="M5.32408 6.81575H8.69458M10.8965 17.9448H3.15484M3.89192 11.6042H10.1034M10.9898 15.9348C10.9198 14.693 10.5653 13.0865 9.93781 11.1618C9.93781 11.1618 9.93548 11.1541 9.93314 11.1489L9.8655 10.9419C9.36168 9.42598 8.85785 8.22305 8.77621 8.03421V7.06669C8.77621 6.98649 8.76222 6.90888 8.73423 6.83903C8.76455 6.75884 8.78321 6.6683 8.78321 6.5674V5.15493C8.78321 4.97126 8.72723 4.80569 8.62693 4.69963C8.55229 4.61943 8.45666 4.57545 8.35869 4.57545C8.3517 4.57545 8.3447 4.57545 8.3377 4.57545C7.92018 4.57545 7.81755 3.75798 7.79422 3.50446C7.76857 3.20696 7.59596 3 7.37204 3H6.67695C6.45536 3 6.28042 3.20696 6.25476 3.50446C6.23377 3.75798 6.12414 4.59356 5.70195 4.57545C5.59932 4.57028 5.49902 4.61684 5.42205 4.69963C5.32175 4.80569 5.26577 4.97384 5.26577 5.15493V6.5674C5.26577 6.64501 5.27743 6.72003 5.29609 6.78729C5.25411 6.87008 5.22845 6.96579 5.22845 7.06927V8.03679C5.14914 8.22047 4.64299 9.42598 4.13916 10.9445L4.06686 11.1618C3.43941 13.0865 3.08486 14.6904 3.01489 15.9348C2.96824 16.7807 3.03122 17.5956 3.20382 18.3587L3.2598 18.6097H3.26447C3.57236 19.7893 4.06919 20.5188 4.27678 20.7853C4.38175 20.9224 4.53569 21 4.69897 21H9.30103C9.46664 21 9.61825 20.9224 9.72089 20.7879C9.93081 20.5188 10.4276 19.7867 10.7355 18.6097H10.7402L10.7962 18.3587C10.9688 17.5956 11.0318 16.7807 10.9851 15.9348H10.9898Z" stroke="#777777" stroke-miterlimit="10"/>
</g>
<defs>
<clipPath id="clip0_168_13092">
<rect width="24" height="24" fill="white" transform="matrix(-1 0 0 1 24 0)"/>
</clipPath>
</defs>
</svg>
