<svg width="24" height="24" viewBox="0 0 24 24" fill="none" xmlns="http://www.w3.org/2000/svg">
<g clip-path="url(#clip0_168_13064)">
<path d="M15.8206 21H8L6 6H18L15.8206 21Z" stroke="#884A35" stroke-linecap="round" stroke-linejoin="round"/>
<path d="M9.99219 19L14.6867 4.4416L17.989 2.5" stroke="#884A35" stroke-linecap="round" stroke-linejoin="round"/>
<path d="M7 11H17" stroke="#884A35" stroke-linecap="round" stroke-linejoin="round"/>
<path d="M9.57311 14.7063C9.89395 14.7063 10.154 14.4462 10.154 14.1254C10.154 13.8045 9.89395 13.5444 9.57311 13.5444C9.25228 13.5444 8.99219 13.8045 8.99219 14.1254C8.99219 14.4462 9.25228 14.7063 9.57311 14.7063Z" stroke="#884A35" stroke-linecap="round" stroke-linejoin="round"/>
<path d="M14.0498 15.5455C14.2111 15.5455 14.3418 15.4147 14.3418 15.2534C14.3418 15.0922 14.2111 14.9614 14.0498 14.9614C13.8886 14.9614 13.7578 15.0922 13.7578 15.2534C13.7578 15.4147 13.8886 15.5455 14.0498 15.5455Z" stroke="#884A35" stroke-linecap="round" stroke-linejoin="round"/>
<path d="M13.5058 18.4187C13.9879 18.4187 14.3787 18.0279 14.3787 17.5458C14.3787 17.0637 13.9879 16.6729 13.5058 16.6729C13.0236 16.6729 12.6328 17.0637 12.6328 17.5458C12.6328 18.0279 13.0236 18.4187 13.5058 18.4187Z" stroke="#884A35" stroke-linecap="round" stroke-linejoin="round"/>
</g>
<defs>
<clipPath id="clip0_168_13064">
<rect width="24" height="24" fill="white" transform="matrix(-1 0 0 1 24 0)"/>
</clipPath>
</defs>
</svg>
