<svg width="32" height="32" viewBox="0 0 32 32" fill="none" xmlns="http://www.w3.org/2000/svg">
<path d="M16.3838 0.75C16.3924 0.750003 16.4018 0.749831 16.416 0.75C16.429 0.750154 16.447 0.750973 16.4658 0.750977H16.5332L16.7227 0.75293V0.753906C16.7373 0.754614 16.7513 0.753785 16.7617 0.753906V0.754883L16.9922 0.762695H16.9971L17.041 0.764648H17.0449L17.2285 0.774414H17.2334L17.2793 0.777344H17.2842C17.4413 0.786963 17.5974 0.798915 17.7529 0.813477L17.7666 0.81543H17.7695L17.9961 0.838867C18.0002 0.839336 18.0041 0.839652 18.0059 0.839844H18.0078L18.0156 0.84082C24.2006 1.5337 29.2611 6.12464 30.7822 12.1895V12.1904L30.7861 12.2061L30.7871 12.208L30.8281 12.3779L30.8301 12.3838L30.8398 12.4277L30.8711 12.5615L30.8721 12.5674L30.8848 12.624V12.625C30.8952 12.6735 30.9032 12.7061 30.9111 12.7441V12.7451C30.9137 12.7578 30.9162 12.7708 30.9189 12.7842L30.9277 12.8252V12.8262L30.9502 12.9355L30.9512 12.9404L30.9668 13.0215C30.9704 13.0404 30.9743 13.0593 30.9775 13.0762C30.9809 13.0937 30.9834 13.1095 30.9863 13.125V13.126C30.9913 13.1525 30.9965 13.1795 31.002 13.21V13.2109C31.0055 13.2315 31.0098 13.2514 31.0127 13.2676L31.0195 13.3115L31.0205 13.3174L31.0371 13.4121L31.0518 13.501V13.5049L31.0674 13.6035C31.0698 13.6194 31.0728 13.635 31.0752 13.6504L31.082 13.6973C31.0866 13.7282 31.0907 13.7601 31.0957 13.7959V13.7969L31.0967 13.8018L31.1084 13.8857L31.1221 13.9912L31.123 13.9932L31.1328 14.0732V14.0771L31.1338 14.0781V14.0859H31.1348V14.0947H31.1357V14.1025H31.1367V14.1113H31.1377V14.1191L31.1387 14.1201V14.1279H31.1396V14.1357L31.1406 14.1367V14.1445H31.1416V14.1533H31.1426V14.1611H31.1436V14.1699H31.1445V14.1777L31.1455 14.1787V14.1865H31.1465C31.1482 14.2018 31.1489 14.2167 31.1504 14.2295L31.1553 14.2695C31.1571 14.2863 31.1592 14.3036 31.1611 14.3223L31.167 14.3838L31.168 14.3867L31.1758 14.4648L31.1855 14.5752C31.1868 14.5896 31.1882 14.6041 31.1895 14.6182C31.1905 14.63 31.1913 14.6417 31.1924 14.6533V14.6543L31.2021 14.7734L31.208 14.8496V14.8525L31.2158 14.9668L31.2168 14.9697C31.2187 14.9983 31.2194 15.0214 31.2207 15.0439V15.0449C31.2218 15.0649 31.2235 15.0853 31.2246 15.1055L31.2275 15.167C31.2282 15.1809 31.2289 15.1944 31.2295 15.2061L31.2314 15.2441L31.2324 15.251C31.2342 15.2833 31.2348 15.3168 31.2363 15.3564V15.3574C31.2369 15.3741 31.2377 15.3906 31.2383 15.4043C31.2388 15.4184 31.2399 15.43 31.2402 15.4414L31.9893 15.417L31.2402 15.4424V15.4463L31.2441 15.5625V15.5645L31.2461 15.6406C31.2463 15.6522 31.2459 15.663 31.2461 15.6709L31.2471 15.6924V15.7012L31.248 15.7568V15.7627C31.2487 15.7926 31.249 15.8136 31.249 15.833V15.8398C31.2493 15.8778 31.25 15.9116 31.25 15.9453V16C31.246 24.3455 24.5258 31.2456 16.3906 31.25H16.3828C13.5067 31.25 10.8228 30.4118 8.54688 28.9609L8.28223 28.792L7.97656 28.8613C7.14524 29.0509 6.38512 29.1289 5.69629 29.1289C3.52138 29.1289 2.00653 28.349 1.17871 27.7676C1.50581 27.5518 1.88125 27.2788 2.24023 26.9541C2.91107 26.3473 3.64777 25.4564 3.75879 24.3457L3.7832 24.1016L3.6582 23.8896C2.36992 21.7086 1.59928 19.1698 1.52246 16.4492L1.51562 15.9023C1.56449 7.85226 7.61199 1.31589 15.3682 0.785156L15.7393 0.763672C15.9555 0.754343 16.1701 0.75 16.3838 0.75Z" fill="#FF7D20" stroke="#FF7D20" stroke-width="1.5" stroke-miterlimit="10"/>
<ellipse cx="12.5" cy="12" rx="1.5" ry="2" fill="white"/>
<ellipse cx="20.5" cy="12" rx="1.5" ry="2" fill="white"/>
<path d="M23 17C23.5523 17 24.01 17.4523 23.8966 17.9928C23.803 18.439 23.6465 18.8762 23.4291 19.2961C23.0522 20.0241 22.4997 20.6855 21.8033 21.2426C21.1069 21.7998 20.2801 22.2417 19.3701 22.5433C18.4602 22.8448 17.4849 23 16.5 23C15.5151 23 14.5398 22.8448 13.6299 22.5433C12.7199 22.2417 11.8931 21.7998 11.1967 21.2426C10.5003 20.6855 9.94781 20.0241 9.5709 19.2961C9.3535 18.8762 9.19696 18.439 9.10339 17.9928C8.99003 17.4523 9.44772 17 10 17L16.5 17H23Z" fill="white"/>
</svg>
