<svg width="24" height="24" viewBox="0 0 24 24" fill="none" xmlns="http://www.w3.org/2000/svg">
<circle cx="12" cy="12" r="10" fill="#FF7D20"/>
<path d="M13.1473 16.4994C13.1473 17.1701 12.6037 17.7137 11.933 17.7137C11.2624 17.7137 10.7188 17.1701 10.7188 16.4994C10.7188 15.8288 11.2624 15.2852 11.933 15.2852C12.6037 15.2852 13.1473 15.8288 13.1473 16.4994Z" fill="white"/>
<path d="M10.7613 7.49869C10.7381 6.83547 11.2694 6.28516 11.933 6.28516C12.5967 6.28516 13.128 6.83547 13.1047 7.4987L12.8942 13.5C12.876 14.0177 12.4511 14.428 11.933 14.428C11.415 14.428 10.9901 14.0177 10.9719 13.5L10.7613 7.49869Z" fill="white"/>
</svg>
