<svg width="16" height="16" viewBox="0 0 16 16" fill="none" xmlns="http://www.w3.org/2000/svg">
<g clip-path="url(#clip0_450_52383)">
<circle cx="8" cy="8" r="6.5" stroke="#BBBBBB"/>
<path d="M8.80156 11.15C8.80156 11.6194 8.421 12 7.95156 12C7.48212 12 7.10156 11.6194 7.10156 11.15C7.10156 10.6806 7.48212 10.3 7.95156 10.3C8.421 10.3 8.80156 10.6806 8.80156 11.15Z" fill="#BBBBBB"/>
<path d="M7.13137 4.84948C7.11508 4.38522 7.48702 4 7.95156 4C8.4161 4 8.78805 4.38522 8.77176 4.84948L8.62436 9.0504C8.61164 9.41279 8.31418 9.7 7.95156 9.7C7.58895 9.7 7.29148 9.41279 7.27877 9.0504L7.13137 4.84948Z" fill="#BBBBBB"/>
</g>
<defs>
<clipPath id="clip0_450_52383">
<rect width="16" height="16" fill="white"/>
</clipPath>
</defs>
</svg>
